:SAMPLES-PER-SECOND 30
:FRAME-RANGE 1-4244
:FULLY-SPECIFIED
:DEGREES
3847
root  34.7172 18.7048 12.965 160.021 82.0844 104.467
RightUpLeg  -79.858 7.54795 -35.5269
RightLeg  122.478 -17.6482 24.3859
RightFoot  18.8076 -0.905134 3.84745
RightToes  -1.33073e-015 0 -3.6325e-017
Spine  25.9665 -2.38294 6.84334
Spine1  -1.11535 -2.70223 12.0438
HEad  37.0394 -8.89765 36.0355
LeftShoulder1  -0.262894 -12.0312 11.3576
LeftArm  14.9439 -72.0968 -85.5713
LeftForeArm  33.8112 -21.9335 -3.41903
LeftHand  0.00608673 5.87041 7.20025
RightShoulder  2.59982 7.85893 16.7452
RightArm  35.0103 45.0965 84.0077
RightForeArm  52.0077 24.6147 2.64728
RightHand  -4.03184 2.68703 -54.0151
LeftUpLeg  -39.9358 8.28313 -14.9466
LeftLeg  101.53 10.0889 -36.8049
LeftFoot  -2.81231 1.82205 -23.8968
LeftToes  2.72522e-012 8.43823e-011 6.24977e-012
3848
root  35.1434 18.6454 13.0692 133.117 82.9465 76.1088
RightUpLeg  -81.395 9.22585 -36.1596
RightLeg  122.589 -16.8619 23.3863
RightFoot  18.3928 -1.2503 5.19108
RightToes  -1.33073e-015 0 -3.6325e-017
Spine  25.937 -2.31416 6.21119
Spine1  -0.419291 -2.64181 11.2267
HEad  34.419 -4.63482 35.4972
LeftShoulder1  -0.394319 -11.0735 12.5362
LeftArm  8.29587 -70.2499 -83.7824
LeftForeArm  40.5035 -25.8116 -3.41439
LeftHand  0.111179 7.46528 7.86391
RightShoulder  2.43509 6.00915 19.8251
RightArm  15.9752 40.4016 73.0588
RightForeArm  58.8213 36.7244 5.01244
RightHand  -4.6486 3.54123 -55.9673
LeftUpLeg  -41.1422 8.24502 -14.2197
LeftLeg  102.351 10.9298 -37.2405
LeftFoot  -3.35761 1.6669 -23.3099
LeftToes  2.72522e-012 8.43823e-011 6.24977e-012
3849
root  35.5961 18.6318 13.1758 110.588 81.8212 51.9584
RightUpLeg  -82.628 10.2256 -37.1031
RightLeg  121.407 -17.8341 25.4758
RightFoot  18.5514 -1.50536 6.12032
RightToes  -1.33073e-015 0 -3.6325e-017
Spine  26.4815 -2.26732 5.87312
Spine1  -0.674639 -2.50741 10.882
HEad  32.4964 -0.858163 33.6388
LeftShoulder1  -0.231857 -10.4565 11.3246
LeftArm  -3.85598 -65.5218 -77.2344
LeftForeArm  40.3673 -33.2177 -5.06834
LeftHand  0.0593996 6.84068 7.00016
RightShoulder  2.14424 4.16553 22.5359
RightArm  -1.67889 36.5563 62.1237
RightForeArm  56.5836 45.3356 7.53752
RightHand  -4.99164 4.13715 -56.2767
LeftUpLeg  -42.8988 7.35419 -13.2132
LeftLeg  103.029 11.1951 -36.5534
LeftFoot  -4.65047 1.66874 -27.5799
LeftToes  2.72522e-012 8.43823e-011 6.24977e-012
3850
root  36.0346 18.6427 13.3258 98.1283 79.6005 38.1381
RightUpLeg  -83.1435 10.7893 -37.6899
RightLeg  120.351 -18.6821 27.3886
RightFoot  17.9684 -1.98301 8.05243
RightToes  -1.33073e-015 0 -3.6325e-017
Spine  27.4899 -2.22733 5.85523
Spine1  -1.40452 -2.1769 10.2359
HEad  31.3013 1.21831 31.3347
LeftShoulder1  0.0631181 -9.05753 8.80754
LeftArm  -6.3176 -61.7199 -73.9251
LeftForeArm  40.744 -38.6468 -6.44102
LeftHand  0.0585212 6.63486 7.88603
RightShoulder  1.94117 3.34451 23.0376
RightArm  -20.7236 34.3338 52.3831
RightForeArm  47.4427 45.7446 8.20503
RightHand  -5.59601 5.2256 -56.5631
LeftUpLeg  -45.0245 6.06567 -12.3282
LeftLeg  103.992 11.3294 -35.0988
LeftFoot  -4.48134 1.60347 -25.9026
LeftToes  2.72522e-012 8.43823e-011 6.24977e-012
3851
root  36.3971 18.6921 13.5083 92.2986 76.8313 31.7977
RightUpLeg  -82.7566 11.4181 -37.7371
RightLeg  119.922 -19.128 28.3026
RightFoot  16.6349 -2.1014 8.88663
RightToes  -1.33073e-015 0 -3.6325e-017
Spine  29.1325 -2.16006 5.94867
Spine1  -2.16478 -1.79302 9.54332
HEad  30.4795 1.12839 29.3937
LeftShoulder1  0.197193 -7.90526 7.3757
LeftArm  -8.09428 -59.0061 -71.6912
LeftForeArm  40.284 -42.8742 -7.71268
LeftHand  0.0410931 6.34979 7.96746
RightShoulder  1.86074 3.39356 21.5294
RightArm  -40.7141 33.5723 43.4677
RightForeArm  36.0171 38.2573 6.60878
RightHand  -5.74171 5.84562 -55.0907
LeftUpLeg  -46.8702 4.6493 -11.6979
LeftLeg  104.937 11.487 -33.8382
LeftFoot  -3.10717 1.51136 -20.5453
LeftToes  2.72522e-012 8.43823e-011 6.24977e-012
3852
root  36.7243 18.7866 13.731 90.3243 73.8935 29.7086
RightUpLeg  -81.7682 11.9125 -37.1308
RightLeg  119.764 -18.4973 27.6979
RightFoot  16.2465 -2.36297 10.0645
RightToes  -1.33073e-015 0 -3.6325e-017
Spine  30.8483 -1.6358 5.70268
Spine1  -2.75834 -1.27633 10.1591
HEad  29.948 -0.326707 27.1123
LeftShoulder1  0.400179 -7.17036 5.01337
LeftArm  -8.83242 -57.2128 -69.244
LeftForeArm  39.2738 -46.1647 -8.88009
LeftHand  0.0127082 5.96175 7.4207
RightShoulder  1.78444 3.85268 18.4702
RightArm  -60.6816 33.7527 34.4289
RightForeArm  34.893 25.2997 3.58357
RightHand  -5.12286 5.162 -52.7214
LeftUpLeg  -49.0725 3.41145 -10.9626
LeftLeg  106.034 11.6756 -32.5042
LeftFoot  -2.56134 1.20299 -15.3943
LeftToes  2.72522e-012 8.43823e-011 6.24977e-012
3853
root  36.9895 18.8838 14.0108 90.0101 70.9516 29.7503
RightUpLeg  -79.9758 12.4331 -36.8933
RightLeg  118.292 -19.045 29.7525
RightFoot  14.4881 -2.75168 12.3987
RightToes  -1.33073e-015 0 -3.6325e-017
Spine  32.4859 -1.54565 5.80408
Spine1  -2.78762 -1.05372 10.0534
HEad  28.989 -1.2569 24.8673
LeftShoulder1  0.482624 -6.94682 3.99721
LeftArm  -10.7356 -55.1299 -65.7914
LeftForeArm  38.3995 -49.3333 -10.1492
LeftHand  0.00626924 5.8356 7.63912
RightShoulder  1.71226 4.29802 15.8507
RightArm  -57.8487 34.7938 27.2832
RightForeArm  21.4289 14.1372 -4.28855
RightHand  -3.346 2.7459 -45.5639
LeftUpLeg  -51.4661 2.33288 -10.1086
LeftLeg  107.837 12.0438 -30.6562
LeftFoot  -6.31951 0.558024 -11.8312
LeftToes  2.72522e-012 8.43823e-011 6.24977e-012
